<mxfile host="65bd71144e">
    <diagram name="Page-1" id="nJ38tKUXbkA9oZhqRRuU">
        <mxGraphModel dx="1583" dy="639" grid="1" gridSize="10" guides="1" tooltips="1" connect="1" arrows="1" fold="1" page="0" pageScale="1" pageWidth="850" pageHeight="1100" math="0" shadow="0">
            <root>
                <mxCell id="0"/>
                <mxCell id="1" parent="0"/>
                <mxCell id="Zs1gpcKFr5MBbYgoYv3y-109" value="VPC" style="sketch=0;outlineConnect=0;gradientColor=none;html=1;whiteSpace=wrap;fontSize=12;fontStyle=0;shape=mxgraph.aws4.group;grIcon=mxgraph.aws4.group_vpc;strokeColor=#879196;fillColor=none;verticalAlign=top;align=left;spacingLeft=30;fontColor=#879196;dashed=0;" parent="1" vertex="1">
                    <mxGeometry x="-10" y="160" width="980" height="790" as="geometry"/>
                </mxCell>
                <mxCell id="12" value="" style="edgeStyle=none;html=1;" parent="1" target="Zs1gpcKFr5MBbYgoYv3y-106" edge="1">
                    <mxGeometry relative="1" as="geometry">
                        <mxPoint x="-10" y="423.37209302325596" as="sourcePoint"/>
                    </mxGeometry>
                </mxCell>
                <mxCell id="Zs1gpcKFr5MBbYgoYv3y-114" value="AWS Cloud" style="points=[[0,0],[0.25,0],[0.5,0],[0.75,0],[1,0],[1,0.25],[1,0.5],[1,0.75],[1,1],[0.75,1],[0.5,1],[0.25,1],[0,1],[0,0.75],[0,0.5],[0,0.25]];outlineConnect=0;gradientColor=none;html=1;whiteSpace=wrap;fontSize=12;fontStyle=0;container=0;pointerEvents=0;collapsible=0;recursiveResize=0;shape=mxgraph.aws4.group;grIcon=mxgraph.aws4.group_aws_cloud_alt;strokeColor=#232F3E;fillColor=none;verticalAlign=top;align=left;spacingLeft=30;fontColor=#232F3E;dashed=0;" parent="1" vertex="1">
                    <mxGeometry x="-50" y="100" width="1070" height="870" as="geometry"/>
                </mxCell>
                <mxCell id="Zs1gpcKFr5MBbYgoYv3y-34" style="edgeStyle=orthogonalEdgeStyle;rounded=0;orthogonalLoop=1;jettySize=auto;html=1;" parent="1" source="Zs1gpcKFr5MBbYgoYv3y-113" target="Zs1gpcKFr5MBbYgoYv3y-106" edge="1">
                    <mxGeometry relative="1" as="geometry">
                        <mxPoint x="-110" y="425" as="sourcePoint"/>
                        <mxPoint x="-110" y="425.5" as="targetPoint"/>
                    </mxGeometry>
                </mxCell>
                <mxCell id="Zs1gpcKFr5MBbYgoYv3y-98" value="&lt;div&gt;DNS&lt;/div&gt;" style="edgeLabel;html=1;align=center;verticalAlign=middle;resizable=0;points=[];" parent="Zs1gpcKFr5MBbYgoYv3y-34" vertex="1" connectable="0">
                    <mxGeometry x="-0.0033" y="-1" relative="1" as="geometry">
                        <mxPoint x="-20" y="-1" as="offset"/>
                    </mxGeometry>
                </mxCell>
                <mxCell id="Zs1gpcKFr5MBbYgoYv3y-35" style="edgeStyle=orthogonalEdgeStyle;rounded=0;orthogonalLoop=1;jettySize=auto;html=1;" parent="1" source="Zs1gpcKFr5MBbYgoYv3y-106" target="Zs1gpcKFr5MBbYgoYv3y-105" edge="1">
                    <mxGeometry relative="1" as="geometry">
                        <mxPoint x="-29" y="425.5" as="sourcePoint"/>
                        <mxPoint x="90" y="426" as="targetPoint"/>
                    </mxGeometry>
                </mxCell>
                <mxCell id="11" value="https" style="edgeLabel;html=1;align=center;verticalAlign=middle;resizable=0;points=[];" parent="Zs1gpcKFr5MBbYgoYv3y-35" vertex="1" connectable="0">
                    <mxGeometry x="-0.2634" y="-4" relative="1" as="geometry">
                        <mxPoint x="10" y="-4" as="offset"/>
                    </mxGeometry>
                </mxCell>
                <mxCell id="Zs1gpcKFr5MBbYgoYv3y-71" value="" style="group" parent="1" vertex="1" connectable="0">
                    <mxGeometry x="480" y="220" width="280" height="595" as="geometry"/>
                </mxCell>
                <mxCell id="3" value="Public subnet" style="points=[[0,0],[0.25,0],[0.5,0],[0.75,0],[1,0],[1,0.25],[1,0.5],[1,0.75],[1,1],[0.75,1],[0.5,1],[0.25,1],[0,1],[0,0.75],[0,0.5],[0,0.25]];outlineConnect=0;gradientColor=none;html=1;whiteSpace=wrap;fontSize=12;fontStyle=0;container=1;pointerEvents=0;collapsible=0;recursiveResize=0;shape=mxgraph.aws4.group;grIcon=mxgraph.aws4.group_security_group;grStroke=0;strokeColor=#248814;fillColor=#E9F3E6;verticalAlign=top;align=left;spacingLeft=30;fontColor=#248814;dashed=0;" parent="Zs1gpcKFr5MBbYgoYv3y-71" vertex="1">
                    <mxGeometry x="-30" y="-50" width="310" height="610" as="geometry"/>
                </mxCell>
                <mxCell id="lKv3rLo4mbLTp5mCqH__-34" value="Security group" style="fillColor=none;strokeColor=#DD3522;verticalAlign=top;fontStyle=0;fontColor=#DD3522;whiteSpace=wrap;html=1;" parent="3" vertex="1">
                    <mxGeometry x="16.97" y="30.19" width="271.52" height="559.81" as="geometry"/>
                </mxCell>
                <mxCell id="28" value="Auto Scaling group" style="points=[[0,0],[0.25,0],[0.5,0],[0.75,0],[1,0],[1,0.25],[1,0.5],[1,0.75],[1,1],[0.75,1],[0.5,1],[0.25,1],[0,1],[0,0.75],[0,0.5],[0,0.25]];outlineConnect=0;gradientColor=none;html=1;whiteSpace=wrap;fontSize=12;fontStyle=0;container=1;pointerEvents=0;collapsible=0;recursiveResize=0;shape=mxgraph.aws4.groupCenter;grIcon=mxgraph.aws4.group_auto_scaling_group;grStroke=1;strokeColor=#D86613;fillColor=none;verticalAlign=top;align=center;fontColor=#D86613;dashed=1;spacingTop=25;" vertex="1" parent="3">
                    <mxGeometry x="25.45" y="235.19" width="254.55" height="159.81" as="geometry"/>
                </mxCell>
                <mxCell id="29" value="EC2 instance contents" style="points=[[0,0],[0.25,0],[0.5,0],[0.75,0],[1,0],[1,0.25],[1,0.5],[1,0.75],[1,1],[0.75,1],[0.5,1],[0.25,1],[0,1],[0,0.75],[0,0.5],[0,0.25]];outlineConnect=0;gradientColor=none;html=1;whiteSpace=wrap;fontSize=12;fontStyle=0;container=0;pointerEvents=0;collapsible=0;recursiveResize=0;shape=mxgraph.aws4.group;grIcon=mxgraph.aws4.group_ec2_instance_contents;strokeColor=#D86613;fillColor=none;verticalAlign=top;align=left;spacingLeft=30;fontColor=#D86613;dashed=0;" vertex="1" parent="28">
                    <mxGeometry x="8.494848484848484" y="55.85253164556963" width="237.57575757575756" height="94.14556962025318" as="geometry"/>
                </mxCell>
                <mxCell id="30" value="phpmyadmin" style="text;html=1;align=center;verticalAlign=middle;whiteSpace=wrap;rounded=0;" vertex="1" parent="3">
                    <mxGeometry x="186.67666666666665" y="353.84044076879763" width="50.90909090909091" height="30.126582278481013" as="geometry"/>
                </mxCell>
                <mxCell id="31" value="Wordpress" style="text;html=1;align=center;verticalAlign=middle;whiteSpace=wrap;rounded=0;" vertex="1" parent="3">
                    <mxGeometry x="59.40393939393939" y="353.84044076879763" width="50.90909090909091" height="30.126582278481013" as="geometry"/>
                </mxCell>
                <mxCell id="32" value="" style="sketch=0;outlineConnect=0;fontColor=#232F3E;gradientColor=none;fillColor=#ED7100;strokeColor=none;dashed=0;verticalLabelPosition=bottom;verticalAlign=top;align=center;html=1;fontSize=12;fontStyle=0;aspect=fixed;pointerEvents=1;shape=mxgraph.aws4.container_2;" vertex="1" parent="3">
                    <mxGeometry x="58.48884848484851" y="323.7138584903166" width="44.60364455434434" height="28.806520441347388" as="geometry"/>
                </mxCell>
                <mxCell id="33" value="" style="sketch=0;outlineConnect=0;fontColor=#232F3E;gradientColor=none;fillColor=#ED7100;strokeColor=none;dashed=0;verticalLabelPosition=bottom;verticalAlign=top;align=center;html=1;fontSize=12;fontStyle=0;aspect=fixed;pointerEvents=1;shape=mxgraph.aws4.container_2;" vertex="1" parent="3">
                    <mxGeometry x="187.1497622377621" y="323.7138584903166" width="44.60364455434434" height="28.806520441347388" as="geometry"/>
                </mxCell>
                <mxCell id="Zs1gpcKFr5MBbYgoYv3y-77" value="Auto Scaling group" style="points=[[0,0],[0.25,0],[0.5,0],[0.75,0],[1,0],[1,0.25],[1,0.5],[1,0.75],[1,1],[0.75,1],[0.5,1],[0.25,1],[0,1],[0,0.75],[0,0.5],[0,0.25]];outlineConnect=0;gradientColor=none;html=1;whiteSpace=wrap;fontSize=12;fontStyle=0;container=1;pointerEvents=0;collapsible=0;recursiveResize=0;shape=mxgraph.aws4.groupCenter;grIcon=mxgraph.aws4.group_auto_scaling_group;grStroke=1;strokeColor=#D86613;fillColor=none;verticalAlign=top;align=center;fontColor=#D86613;dashed=1;spacingTop=25;" parent="3" vertex="1">
                    <mxGeometry x="25.45" y="60.19" width="254.55" height="159.81" as="geometry"/>
                </mxCell>
                <mxCell id="1xvQeY0YGKO31zNW-kw5-3" value="EC2 instance contents" style="points=[[0,0],[0.25,0],[0.5,0],[0.75,0],[1,0],[1,0.25],[1,0.5],[1,0.75],[1,1],[0.75,1],[0.5,1],[0.25,1],[0,1],[0,0.75],[0,0.5],[0,0.25]];outlineConnect=0;gradientColor=none;html=1;whiteSpace=wrap;fontSize=12;fontStyle=0;container=0;pointerEvents=0;collapsible=0;recursiveResize=0;shape=mxgraph.aws4.group;grIcon=mxgraph.aws4.group_ec2_instance_contents;strokeColor=#D86613;fillColor=none;verticalAlign=top;align=left;spacingLeft=30;fontColor=#D86613;dashed=0;" parent="3" vertex="1">
                    <mxGeometry x="33.93939393939392" y="115.19240506329115" width="237.5757575757576" height="94.14556962025318" as="geometry"/>
                </mxCell>
                <mxCell id="Zs1gpcKFr5MBbYgoYv3y-20" value="phpmyadmin" style="text;html=1;align=center;verticalAlign=middle;whiteSpace=wrap;rounded=0;" parent="3" vertex="1">
                    <mxGeometry x="186.66666666666666" y="177.99170659158239" width="50.909090909090914" height="30.126582278481013" as="geometry"/>
                </mxCell>
                <mxCell id="Zs1gpcKFr5MBbYgoYv3y-19" value="Wordpress" style="text;html=1;align=center;verticalAlign=middle;whiteSpace=wrap;rounded=0;" parent="3" vertex="1">
                    <mxGeometry x="59.39393939393938" y="177.99170659158239" width="50.909090909090914" height="30.126582278481013" as="geometry"/>
                </mxCell>
                <mxCell id="Zs1gpcKFr5MBbYgoYv3y-61" value="" style="sketch=0;outlineConnect=0;fontColor=#232F3E;gradientColor=none;fillColor=#ED7100;strokeColor=none;dashed=0;verticalLabelPosition=bottom;verticalAlign=top;align=center;html=1;fontSize=12;fontStyle=0;aspect=fixed;pointerEvents=1;shape=mxgraph.aws4.container_2;" parent="3" vertex="1">
                    <mxGeometry x="58.4788484848485" y="147.86512431310138" width="44.60364455434434" height="28.806520441347388" as="geometry"/>
                </mxCell>
                <mxCell id="Zs1gpcKFr5MBbYgoYv3y-62" value="" style="sketch=0;outlineConnect=0;fontColor=#232F3E;gradientColor=none;fillColor=#ED7100;strokeColor=none;dashed=0;verticalLabelPosition=bottom;verticalAlign=top;align=center;html=1;fontSize=12;fontStyle=0;aspect=fixed;pointerEvents=1;shape=mxgraph.aws4.container_2;" parent="3" vertex="1">
                    <mxGeometry x="187.13976223776217" y="147.86512431310138" width="44.60364455434434" height="28.806520441347388" as="geometry"/>
                </mxCell>
                <mxCell id="68" value="Auto Scaling group" style="points=[[0,0],[0.25,0],[0.5,0],[0.75,0],[1,0],[1,0.25],[1,0.5],[1,0.75],[1,1],[0.75,1],[0.5,1],[0.25,1],[0,1],[0,0.75],[0,0.5],[0,0.25]];outlineConnect=0;gradientColor=none;html=1;whiteSpace=wrap;fontSize=12;fontStyle=0;container=1;pointerEvents=0;collapsible=0;recursiveResize=0;shape=mxgraph.aws4.groupCenter;grIcon=mxgraph.aws4.group_auto_scaling_group;grStroke=1;strokeColor=#D86613;fillColor=none;verticalAlign=top;align=center;fontColor=#D86613;dashed=1;spacingTop=25;" vertex="1" parent="3">
                    <mxGeometry x="25.44999999999999" y="415.18999999999994" width="254.55" height="159.81" as="geometry"/>
                </mxCell>
                <mxCell id="69" value="EC2 instance contents" style="points=[[0,0],[0.25,0],[0.5,0],[0.75,0],[1,0],[1,0.25],[1,0.5],[1,0.75],[1,1],[0.75,1],[0.5,1],[0.25,1],[0,1],[0,0.75],[0,0.5],[0,0.25]];outlineConnect=0;gradientColor=none;html=1;whiteSpace=wrap;fontSize=12;fontStyle=0;container=0;pointerEvents=0;collapsible=0;recursiveResize=0;shape=mxgraph.aws4.group;grIcon=mxgraph.aws4.group_ec2_instance_contents;strokeColor=#D86613;fillColor=none;verticalAlign=top;align=left;spacingLeft=30;fontColor=#D86613;dashed=0;" vertex="1" parent="68">
                    <mxGeometry x="8.494848484848484" y="55.85253164556963" width="237.57575757575756" height="94.14556962025318" as="geometry"/>
                </mxCell>
                <mxCell id="70" value="phpmyadmin" style="text;html=1;align=center;verticalAlign=middle;whiteSpace=wrap;rounded=0;" vertex="1" parent="3">
                    <mxGeometry x="186.67666666666668" y="533.8404407687976" width="50.90909090909091" height="30.126582278481013" as="geometry"/>
                </mxCell>
                <mxCell id="71" value="Wordpress" style="text;html=1;align=center;verticalAlign=middle;whiteSpace=wrap;rounded=0;" vertex="1" parent="3">
                    <mxGeometry x="59.403939393939424" y="533.8404407687976" width="50.90909090909091" height="30.126582278481013" as="geometry"/>
                </mxCell>
                <mxCell id="72" value="" style="sketch=0;outlineConnect=0;fontColor=#232F3E;gradientColor=none;fillColor=#ED7100;strokeColor=none;dashed=0;verticalLabelPosition=bottom;verticalAlign=top;align=center;html=1;fontSize=12;fontStyle=0;aspect=fixed;pointerEvents=1;shape=mxgraph.aws4.container_2;" vertex="1" parent="3">
                    <mxGeometry x="58.48884848484846" y="503.7138584903166" width="44.60364455434434" height="28.806520441347388" as="geometry"/>
                </mxCell>
                <mxCell id="73" value="" style="sketch=0;outlineConnect=0;fontColor=#232F3E;gradientColor=none;fillColor=#ED7100;strokeColor=none;dashed=0;verticalLabelPosition=bottom;verticalAlign=top;align=center;html=1;fontSize=12;fontStyle=0;aspect=fixed;pointerEvents=1;shape=mxgraph.aws4.container_2;" vertex="1" parent="3">
                    <mxGeometry x="187.1497622377621" y="503.7138584903166" width="44.60364455434434" height="28.806520441347388" as="geometry"/>
                </mxCell>
                <mxCell id="5" style="edgeStyle=none;html=1;entryX=0;entryY=0.5;entryDx=0;entryDy=0;" parent="1" source="Zs1gpcKFr5MBbYgoYv3y-105" target="1xvQeY0YGKO31zNW-kw5-3" edge="1">
                    <mxGeometry relative="1" as="geometry"/>
                </mxCell>
                <mxCell id="8" value="http" style="edgeLabel;html=1;align=center;verticalAlign=middle;resizable=0;points=[];" parent="5" vertex="1" connectable="0">
                    <mxGeometry x="-0.28" y="1" relative="1" as="geometry">
                        <mxPoint as="offset"/>
                    </mxGeometry>
                </mxCell>
                <mxCell id="6" style="edgeStyle=none;html=1;entryX=0;entryY=0.5;entryDx=0;entryDy=0;" parent="1" source="Zs1gpcKFr5MBbYgoYv3y-105" target="29" edge="1">
                    <mxGeometry relative="1" as="geometry">
                        <mxPoint x="400" y="466.25" as="targetPoint"/>
                    </mxGeometry>
                </mxCell>
                <mxCell id="9" value="http" style="edgeLabel;html=1;align=center;verticalAlign=middle;resizable=0;points=[];" parent="6" vertex="1" connectable="0">
                    <mxGeometry x="-0.2815" y="3" relative="1" as="geometry">
                        <mxPoint y="2" as="offset"/>
                    </mxGeometry>
                </mxCell>
                <mxCell id="110" value="Text" style="edgeLabel;html=1;align=center;verticalAlign=middle;resizable=0;points=[];" vertex="1" connectable="0" parent="6">
                    <mxGeometry x="0.1336" y="-3" relative="1" as="geometry">
                        <mxPoint as="offset"/>
                    </mxGeometry>
                </mxCell>
                <mxCell id="7" style="edgeStyle=none;html=1;entryX=0;entryY=0.5;entryDx=0;entryDy=0;" parent="1" source="Zs1gpcKFr5MBbYgoYv3y-105" target="69" edge="1">
                    <mxGeometry relative="1" as="geometry">
                        <mxPoint x="400" y="626.25" as="targetPoint"/>
                    </mxGeometry>
                </mxCell>
                <mxCell id="10" value="http" style="edgeLabel;html=1;align=center;verticalAlign=middle;resizable=0;points=[];" parent="7" vertex="1" connectable="0">
                    <mxGeometry x="-0.2484" y="-3" relative="1" as="geometry">
                        <mxPoint as="offset"/>
                    </mxGeometry>
                </mxCell>
                <mxCell id="Zs1gpcKFr5MBbYgoYv3y-105" value="Application Load Balancer" style="sketch=0;outlineConnect=0;fontColor=#232F3E;gradientColor=#4C0099;strokeColor=#ffffff;fillColor=#9933FF;dashed=0;verticalLabelPosition=middle;verticalAlign=bottom;align=center;html=1;whiteSpace=wrap;fontSize=10;fontStyle=1;spacing=3;shape=mxgraph.aws4.productIcon;prIcon=mxgraph.aws4.application_load_balancer;" parent="1" vertex="1">
                    <mxGeometry x="170" y="390" width="80" height="110" as="geometry"/>
                </mxCell>
                <mxCell id="Zs1gpcKFr5MBbYgoYv3y-106" value="Amazon Route 53" style="sketch=0;outlineConnect=0;fontColor=#232F3E;gradientColor=#4C0099;strokeColor=#ffffff;fillColor=#9933FF;dashed=0;verticalLabelPosition=middle;verticalAlign=bottom;align=center;html=1;whiteSpace=wrap;fontSize=10;fontStyle=1;spacing=3;shape=mxgraph.aws4.productIcon;prIcon=mxgraph.aws4.route_53;" parent="1" vertex="1">
                    <mxGeometry x="10" y="390" width="80" height="110" as="geometry"/>
                </mxCell>
                <mxCell id="Zs1gpcKFr5MBbYgoYv3y-113" value="Client" style="sketch=0;outlineConnect=0;fontColor=#232F3E;gradientColor=none;strokeColor=#232F3E;fillColor=#ffffff;dashed=0;verticalLabelPosition=bottom;verticalAlign=top;align=center;html=1;fontSize=12;fontStyle=0;aspect=fixed;shape=mxgraph.aws4.resourceIcon;resIcon=mxgraph.aws4.client;" parent="1" vertex="1">
                    <mxGeometry x="-180" y="405" width="80" height="80" as="geometry"/>
                </mxCell>
                <mxCell id="112" value="" style="edgeStyle=none;curved=1;rounded=0;orthogonalLoop=1;jettySize=auto;html=1;endArrow=open;startSize=14;endSize=14;sourcePerimeterSpacing=8;targetPerimeterSpacing=8;entryX=0;entryY=0.5;entryDx=0;entryDy=0;" edge="1" parent="1">
                    <mxGeometry relative="1" as="geometry">
                        <mxPoint x="260.0000000000002" y="815.3460619301522" as="sourcePoint"/>
                        <mxPoint x="465.94484848484854" y="688.1153164556963" as="targetPoint"/>
                    </mxGeometry>
                </mxCell>
                <mxCell id="neNdCAJ6mrXqA0sVPd2m-1" value="Amazon Elastic File System" style="sketch=0;outlineConnect=0;fontColor=#232F3E;gradientColor=#336600;strokeColor=#ffffff;fillColor=#7AA116;dashed=0;verticalLabelPosition=middle;verticalAlign=bottom;align=center;html=1;whiteSpace=wrap;fontSize=10;fontStyle=1;spacing=3;shape=mxgraph.aws4.productIcon;prIcon=mxgraph.aws4.elastic_file_system;" parent="1" vertex="1">
                    <mxGeometry x="190" y="790" width="80" height="110" as="geometry"/>
                </mxCell>
                <mxCell id="76" value="" style="group" vertex="1" connectable="0" parent="1">
                    <mxGeometry x="810" y="252.27" width="120" height="160" as="geometry"/>
                </mxCell>
                <mxCell id="Zs1gpcKFr5MBbYgoYv3y-102" value="Amazon RDS" style="sketch=0;outlineConnect=0;fontColor=#232F3E;gradientColor=#3333FF;strokeColor=#ffffff;fillColor=#0077FF;dashed=0;verticalLabelPosition=middle;verticalAlign=bottom;align=center;html=1;whiteSpace=wrap;fontSize=10;fontStyle=1;spacing=3;shape=mxgraph.aws4.productIcon;prIcon=mxgraph.aws4.rds;" parent="76" vertex="1">
                    <mxGeometry x="20" y="30" width="80" height="100" as="geometry"/>
                </mxCell>
                <mxCell id="4" value="&lt;span style=&quot;color: rgba(0, 0, 0, 0); font-family: monospace; font-size: 0px; text-align: start;&quot;&gt;%3CmxGraphModel%3E%3Croot%3E%3CmxCell%20id%3D%220%22%2F%3E%3CmxCell%20id%3D%221%22%20parent%3D%220%22%2F%3E%3CmxCell%20id%3D%222%22%20value%3D%22Auto%20Scaling%20group%22%20style%3D%22points%3D%5B%5B0%2C0%5D%2C%5B0.25%2C0%5D%2C%5B0.5%2C0%5D%2C%5B0.75%2C0%5D%2C%5B1%2C0%5D%2C%5B1%2C0.25%5D%2C%5B1%2C0.5%5D%2C%5B1%2C0.75%5D%2C%5B1%2C1%5D%2C%5B0.75%2C1%5D%2C%5B0.5%2C1%5D%2C%5B0.25%2C1%5D%2C%5B0%2C1%5D%2C%5B0%2C0.75%5D%2C%5B0%2C0.5%5D%2C%5B0%2C0.25%5D%5D%3BoutlineConnect%3D0%3BgradientColor%3Dnone%3Bhtml%3D1%3BwhiteSpace%3Dwrap%3BfontSize%3D12%3BfontStyle%3D0%3Bcontainer%3D1%3BpointerEvents%3D0%3Bcollapsible%3D0%3BrecursiveResize%3D0%3Bshape%3Dmxgraph.aws4.groupCenter%3BgrIcon%3Dmxgraph.aws4.group_auto_scaling_group%3BgrStroke%3D1%3BstrokeColor%3D%23D86613%3BfillColor%3Dnone%3BverticalAlign%3Dtop%3Balign%3Dcenter%3BfontColor%3D%23D86613%3Bdashed%3D1%3BspacingTop%3D25%3B%22%20vertex%3D%221%22%20parent%3D%221%22%3E%3CmxGeometry%20x%3D%22479.99545454545455%22%20y%3D%22410.0001265822785%22%20width%3D%22254.55%22%20height%3D%22159.81%22%20as%3D%22geometry%22%2F%3E%3C%2FmxCell%3E%3CmxCell%20id%3D%223%22%20value%3D%22EC2%20instance%20contents%22%20style%3D%22points%3D%5B%5B0%2C0%5D%2C%5B0.25%2C0%5D%2C%5B0.5%2C0%5D%2C%5B0.75%2C0%5D%2C%5B1%2C0%5D%2C%5B1%2C0.25%5D%2C%5B1%2C0.5%5D%2C%5B1%2C0.75%5D%2C%5B1%2C1%5D%2C%5B0.75%2C1%5D%2C%5B0.5%2C1%5D%2C%5B0.25%2C1%5D%2C%5B0%2C1%5D%2C%5B0%2C0.75%5D%2C%5B0%2C0.5%5D%2C%5B0%2C0.25%5D%5D%3BoutlineConnect%3D0%3BgradientColor%3Dnone%3Bhtml%3D1%3BwhiteSpace%3Dwrap%3BfontSize%3D12%3BfontStyle%3D0%3Bcontainer%3D0%3BpointerEvents%3D0%3Bcollapsible%3D0%3BrecursiveResize%3D0%3Bshape%3Dmxgraph.aws4.group%3BgrIcon%3Dmxgraph.aws4.group_ec2_instance_contents%3BstrokeColor%3D%23D86613%3BfillColor%3Dnone%3BverticalAlign%3Dtop%3Balign%3Dleft%3BspacingLeft%3D30%3BfontColor%3D%23D86613%3Bdashed%3D0%3B%22%20vertex%3D%221%22%20parent%3D%222%22%3E%3CmxGeometry%20x%3D%228.494848484848484%22%20y%3D%2255.85253164556963%22%20width%3D%22237.57575757575756%22%20height%3D%2294.14556962025318%22%20as%3D%22geometry%22%2F%3E%3C%2FmxCell%3E%3CmxCell%20id%3D%224%22%20value%3D%22phpmyadmin%22%20style%3D%22text%3Bhtml%3D1%3Balign%3Dcenter%3BverticalAlign%3Dmiddle%3BwhiteSpace%3Dwrap%3Brounded%3D0%3B%22%20vertex%3D%221%22%20parent%3D%221%22%3E%3CmxGeometry%20x%3D%22641.2221212121212%22%20y%3D%22528.6505673510761%22%20width%3D%2250.90909090909091%22%20height%3D%2230.126582278481013%22%20as%3D%22geometry%22%2F%3E%3C%2FmxCell%3E%3CmxCell%20id%3D%225%22%20value%3D%22Wordpress%22%20style%3D%22text%3Bhtml%3D1%3Balign%3Dcenter%3BverticalAlign%3Dmiddle%3BwhiteSpace%3Dwrap%3Brounded%3D0%3B%22%20vertex%3D%221%22%20parent%3D%221%22%3E%3CmxGeometry%20x%3D%22513.949393939394%22%20y%3D%22528.6505673510761%22%20width%3D%2250.90909090909091%22%20height%3D%2230.126582278481013%22%20as%3D%22geometry%22%2F%3E%3C%2FmxCell%3E%3CmxCell%20id%3D%226%22%20value%3D%22%22%20style%3D%22sketch%3D0%3BoutlineConnect%3D0%3BfontColor%3D%23232F3E%3BgradientColor%3Dnone%3BfillColor%3D%23ED7100%3BstrokeColor%3Dnone%3Bdashed%3D0%3BverticalLabelPosition%3Dbottom%3BverticalAlign%3Dtop%3Balign%3Dcenter%3Bhtml%3D1%3BfontSize%3D12%3BfontStyle%3D0%3Baspect%3Dfixed%3BpointerEvents%3D1%3Bshape%3Dmxgraph.aws4.container_2%3B%22%20vertex%3D%221%22%20parent%3D%221%22%3E%3CmxGeometry%20x%3D%22513.034303030303%22%20y%3D%22498.5239850725951%22%20width%3D%2244.60364455434434%22%20height%3D%2228.806520441347388%22%20as%3D%22geometry%22%2F%3E%3C%2FmxCell%3E%3CmxCell%20id%3D%227%22%20value%3D%22%22%20style%3D%22sketch%3D0%3BoutlineConnect%3D0%3BfontColor%3D%23232F3E%3BgradientColor%3Dnone%3BfillColor%3D%23ED7100%3BstrokeColor%3Dnone%3Bdashed%3D0%3BverticalLabelPosition%3Dbottom%3BverticalAlign%3Dtop%3Balign%3Dcenter%3Bhtml%3D1%3BfontSize%3D12%3BfontStyle%3D0%3Baspect%3Dfixed%3BpointerEvents%3D1%3Bshape%3Dmxgraph.aws4.container_2%3B%22%20vertex%3D%221%22%20parent%3D%221%22%3E%3CmxGeometry%20x%3D%22641.6952167832167%22%20y%3D%22498.5239850725951%22%20width%3D%2244.60364455434434%22%20height%3D%2228.806520441347388%22%20as%3D%22geometry%22%2F%3E%3C%2FmxCell%3E%3C%2Froot%3E%3C%2FmxGraphModel%3E&lt;/span&gt;" style="fillColor=none;strokeColor=#DD3522;verticalAlign=top;fontStyle=0;fontColor=#DD3522;whiteSpace=wrap;html=1;" parent="76" vertex="1">
                    <mxGeometry width="120" height="160" as="geometry"/>
                </mxCell>
                <mxCell id="neNdCAJ6mrXqA0sVPd2m-6" value="&lt;font style=&quot;font-size: 8px;&quot;&gt;MySQL&lt;/font&gt;" style="text;html=1;align=center;verticalAlign=middle;whiteSpace=wrap;rounded=0;fillColor=default;" parent="76" vertex="1">
                    <mxGeometry x="15" y="130" width="50" height="20" as="geometry"/>
                </mxCell>
                <mxCell id="81" value="" style="group" vertex="1" connectable="0" parent="1">
                    <mxGeometry x="810" y="428.12" width="130" height="201.88" as="geometry"/>
                </mxCell>
                <mxCell id="82" value="Amazon RDS" style="sketch=0;outlineConnect=0;fontColor=#232F3E;gradientColor=#3333FF;strokeColor=#ffffff;fillColor=#0077FF;dashed=0;verticalLabelPosition=middle;verticalAlign=bottom;align=center;html=1;whiteSpace=wrap;fontSize=10;fontStyle=1;spacing=3;shape=mxgraph.aws4.productIcon;prIcon=mxgraph.aws4.rds;" vertex="1" parent="81">
                    <mxGeometry x="20" y="30" width="80" height="100" as="geometry"/>
                </mxCell>
                <mxCell id="83" value="&lt;span style=&quot;color: rgba(0, 0, 0, 0); font-family: monospace; font-size: 0px; text-align: start;&quot;&gt;%3CmxGraphModel%3E%3Croot%3E%3CmxCell%20id%3D%220%22%2F%3E%3CmxCell%20id%3D%221%22%20parent%3D%220%22%2F%3E%3CmxCell%20id%3D%222%22%20value%3D%22Auto%20Scaling%20group%22%20style%3D%22points%3D%5B%5B0%2C0%5D%2C%5B0.25%2C0%5D%2C%5B0.5%2C0%5D%2C%5B0.75%2C0%5D%2C%5B1%2C0%5D%2C%5B1%2C0.25%5D%2C%5B1%2C0.5%5D%2C%5B1%2C0.75%5D%2C%5B1%2C1%5D%2C%5B0.75%2C1%5D%2C%5B0.5%2C1%5D%2C%5B0.25%2C1%5D%2C%5B0%2C1%5D%2C%5B0%2C0.75%5D%2C%5B0%2C0.5%5D%2C%5B0%2C0.25%5D%5D%3BoutlineConnect%3D0%3BgradientColor%3Dnone%3Bhtml%3D1%3BwhiteSpace%3Dwrap%3BfontSize%3D12%3BfontStyle%3D0%3Bcontainer%3D1%3BpointerEvents%3D0%3Bcollapsible%3D0%3BrecursiveResize%3D0%3Bshape%3Dmxgraph.aws4.groupCenter%3BgrIcon%3Dmxgraph.aws4.group_auto_scaling_group%3BgrStroke%3D1%3BstrokeColor%3D%23D86613%3BfillColor%3Dnone%3BverticalAlign%3Dtop%3Balign%3Dcenter%3BfontColor%3D%23D86613%3Bdashed%3D1%3BspacingTop%3D25%3B%22%20vertex%3D%221%22%20parent%3D%221%22%3E%3CmxGeometry%20x%3D%22479.99545454545455%22%20y%3D%22410.0001265822785%22%20width%3D%22254.55%22%20height%3D%22159.81%22%20as%3D%22geometry%22%2F%3E%3C%2FmxCell%3E%3CmxCell%20id%3D%223%22%20value%3D%22EC2%20instance%20contents%22%20style%3D%22points%3D%5B%5B0%2C0%5D%2C%5B0.25%2C0%5D%2C%5B0.5%2C0%5D%2C%5B0.75%2C0%5D%2C%5B1%2C0%5D%2C%5B1%2C0.25%5D%2C%5B1%2C0.5%5D%2C%5B1%2C0.75%5D%2C%5B1%2C1%5D%2C%5B0.75%2C1%5D%2C%5B0.5%2C1%5D%2C%5B0.25%2C1%5D%2C%5B0%2C1%5D%2C%5B0%2C0.75%5D%2C%5B0%2C0.5%5D%2C%5B0%2C0.25%5D%5D%3BoutlineConnect%3D0%3BgradientColor%3Dnone%3Bhtml%3D1%3BwhiteSpace%3Dwrap%3BfontSize%3D12%3BfontStyle%3D0%3Bcontainer%3D0%3BpointerEvents%3D0%3Bcollapsible%3D0%3BrecursiveResize%3D0%3Bshape%3Dmxgraph.aws4.group%3BgrIcon%3Dmxgraph.aws4.group_ec2_instance_contents%3BstrokeColor%3D%23D86613%3BfillColor%3Dnone%3BverticalAlign%3Dtop%3Balign%3Dleft%3BspacingLeft%3D30%3BfontColor%3D%23D86613%3Bdashed%3D0%3B%22%20vertex%3D%221%22%20parent%3D%222%22%3E%3CmxGeometry%20x%3D%228.494848484848484%22%20y%3D%2255.85253164556963%22%20width%3D%22237.57575757575756%22%20height%3D%2294.14556962025318%22%20as%3D%22geometry%22%2F%3E%3C%2FmxCell%3E%3CmxCell%20id%3D%224%22%20value%3D%22phpmyadmin%22%20style%3D%22text%3Bhtml%3D1%3Balign%3Dcenter%3BverticalAlign%3Dmiddle%3BwhiteSpace%3Dwrap%3Brounded%3D0%3B%22%20vertex%3D%221%22%20parent%3D%221%22%3E%3CmxGeometry%20x%3D%22641.2221212121212%22%20y%3D%22528.6505673510761%22%20width%3D%2250.90909090909091%22%20height%3D%2230.126582278481013%22%20as%3D%22geometry%22%2F%3E%3C%2FmxCell%3E%3CmxCell%20id%3D%225%22%20value%3D%22Wordpress%22%20style%3D%22text%3Bhtml%3D1%3Balign%3Dcenter%3BverticalAlign%3Dmiddle%3BwhiteSpace%3Dwrap%3Brounded%3D0%3B%22%20vertex%3D%221%22%20parent%3D%221%22%3E%3CmxGeometry%20x%3D%22513.949393939394%22%20y%3D%22528.6505673510761%22%20width%3D%2250.90909090909091%22%20height%3D%2230.126582278481013%22%20as%3D%22geometry%22%2F%3E%3C%2FmxCell%3E%3CmxCell%20id%3D%226%22%20value%3D%22%22%20style%3D%22sketch%3D0%3BoutlineConnect%3D0%3BfontColor%3D%23232F3E%3BgradientColor%3Dnone%3BfillColor%3D%23ED7100%3BstrokeColor%3Dnone%3Bdashed%3D0%3BverticalLabelPosition%3Dbottom%3BverticalAlign%3Dtop%3Balign%3Dcenter%3Bhtml%3D1%3BfontSize%3D12%3BfontStyle%3D0%3Baspect%3Dfixed%3BpointerEvents%3D1%3Bshape%3Dmxgraph.aws4.container_2%3B%22%20vertex%3D%221%22%20parent%3D%221%22%3E%3CmxGeometry%20x%3D%22513.034303030303%22%20y%3D%22498.5239850725951%22%20width%3D%2244.60364455434434%22%20height%3D%2228.806520441347388%22%20as%3D%22geometry%22%2F%3E%3C%2FmxCell%3E%3CmxCell%20id%3D%227%22%20value%3D%22%22%20style%3D%22sketch%3D0%3BoutlineConnect%3D0%3BfontColor%3D%23232F3E%3BgradientColor%3Dnone%3BfillColor%3D%23ED7100%3BstrokeColor%3Dnone%3Bdashed%3D0%3BverticalLabelPosition%3Dbottom%3BverticalAlign%3Dtop%3Balign%3Dcenter%3Bhtml%3D1%3BfontSize%3D12%3BfontStyle%3D0%3Baspect%3Dfixed%3BpointerEvents%3D1%3Bshape%3Dmxgraph.aws4.container_2%3B%22%20vertex%3D%221%22%20parent%3D%221%22%3E%3CmxGeometry%20x%3D%22641.6952167832167%22%20y%3D%22498.5239850725951%22%20width%3D%2244.60364455434434%22%20height%3D%2228.806520441347388%22%20as%3D%22geometry%22%2F%3E%3C%2FmxCell%3E%3C%2Froot%3E%3C%2FmxGraphModel%3E&lt;/span&gt;" style="fillColor=none;strokeColor=#DD3522;verticalAlign=top;fontStyle=0;fontColor=#DD3522;whiteSpace=wrap;html=1;" vertex="1" parent="81">
                    <mxGeometry width="120" height="160" as="geometry"/>
                </mxCell>
                <mxCell id="84" value="&lt;font style=&quot;font-size: 8px;&quot;&gt;MySQL&lt;/font&gt;" style="text;html=1;align=center;verticalAlign=middle;whiteSpace=wrap;rounded=0;fillColor=default;" vertex="1" parent="81">
                    <mxGeometry x="15" y="130" width="50" height="20" as="geometry"/>
                </mxCell>
                <mxCell id="89" value="" style="group" vertex="1" connectable="0" parent="81">
                    <mxGeometry y="181.88" width="120" height="160" as="geometry"/>
                </mxCell>
                <mxCell id="90" value="Amazon RDS" style="sketch=0;outlineConnect=0;fontColor=#232F3E;gradientColor=#3333FF;strokeColor=#ffffff;fillColor=#0077FF;dashed=0;verticalLabelPosition=middle;verticalAlign=bottom;align=center;html=1;whiteSpace=wrap;fontSize=10;fontStyle=1;spacing=3;shape=mxgraph.aws4.productIcon;prIcon=mxgraph.aws4.rds;" vertex="1" parent="89">
                    <mxGeometry x="20" y="30" width="80" height="100" as="geometry"/>
                </mxCell>
                <mxCell id="91" value="&lt;span style=&quot;color: rgba(0, 0, 0, 0); font-family: monospace; font-size: 0px; text-align: start;&quot;&gt;%3CmxGraphModel%3E%3Croot%3E%3CmxCell%20id%3D%220%22%2F%3E%3CmxCell%20id%3D%221%22%20parent%3D%220%22%2F%3E%3CmxCell%20id%3D%222%22%20value%3D%22Auto%20Scaling%20group%22%20style%3D%22points%3D%5B%5B0%2C0%5D%2C%5B0.25%2C0%5D%2C%5B0.5%2C0%5D%2C%5B0.75%2C0%5D%2C%5B1%2C0%5D%2C%5B1%2C0.25%5D%2C%5B1%2C0.5%5D%2C%5B1%2C0.75%5D%2C%5B1%2C1%5D%2C%5B0.75%2C1%5D%2C%5B0.5%2C1%5D%2C%5B0.25%2C1%5D%2C%5B0%2C1%5D%2C%5B0%2C0.75%5D%2C%5B0%2C0.5%5D%2C%5B0%2C0.25%5D%5D%3BoutlineConnect%3D0%3BgradientColor%3Dnone%3Bhtml%3D1%3BwhiteSpace%3Dwrap%3BfontSize%3D12%3BfontStyle%3D0%3Bcontainer%3D1%3BpointerEvents%3D0%3Bcollapsible%3D0%3BrecursiveResize%3D0%3Bshape%3Dmxgraph.aws4.groupCenter%3BgrIcon%3Dmxgraph.aws4.group_auto_scaling_group%3BgrStroke%3D1%3BstrokeColor%3D%23D86613%3BfillColor%3Dnone%3BverticalAlign%3Dtop%3Balign%3Dcenter%3BfontColor%3D%23D86613%3Bdashed%3D1%3BspacingTop%3D25%3B%22%20vertex%3D%221%22%20parent%3D%221%22%3E%3CmxGeometry%20x%3D%22479.99545454545455%22%20y%3D%22410.0001265822785%22%20width%3D%22254.55%22%20height%3D%22159.81%22%20as%3D%22geometry%22%2F%3E%3C%2FmxCell%3E%3CmxCell%20id%3D%223%22%20value%3D%22EC2%20instance%20contents%22%20style%3D%22points%3D%5B%5B0%2C0%5D%2C%5B0.25%2C0%5D%2C%5B0.5%2C0%5D%2C%5B0.75%2C0%5D%2C%5B1%2C0%5D%2C%5B1%2C0.25%5D%2C%5B1%2C0.5%5D%2C%5B1%2C0.75%5D%2C%5B1%2C1%5D%2C%5B0.75%2C1%5D%2C%5B0.5%2C1%5D%2C%5B0.25%2C1%5D%2C%5B0%2C1%5D%2C%5B0%2C0.75%5D%2C%5B0%2C0.5%5D%2C%5B0%2C0.25%5D%5D%3BoutlineConnect%3D0%3BgradientColor%3Dnone%3Bhtml%3D1%3BwhiteSpace%3Dwrap%3BfontSize%3D12%3BfontStyle%3D0%3Bcontainer%3D0%3BpointerEvents%3D0%3Bcollapsible%3D0%3BrecursiveResize%3D0%3Bshape%3Dmxgraph.aws4.group%3BgrIcon%3Dmxgraph.aws4.group_ec2_instance_contents%3BstrokeColor%3D%23D86613%3BfillColor%3Dnone%3BverticalAlign%3Dtop%3Balign%3Dleft%3BspacingLeft%3D30%3BfontColor%3D%23D86613%3Bdashed%3D0%3B%22%20vertex%3D%221%22%20parent%3D%222%22%3E%3CmxGeometry%20x%3D%228.494848484848484%22%20y%3D%2255.85253164556963%22%20width%3D%22237.57575757575756%22%20height%3D%2294.14556962025318%22%20as%3D%22geometry%22%2F%3E%3C%2FmxCell%3E%3CmxCell%20id%3D%224%22%20value%3D%22phpmyadmin%22%20style%3D%22text%3Bhtml%3D1%3Balign%3Dcenter%3BverticalAlign%3Dmiddle%3BwhiteSpace%3Dwrap%3Brounded%3D0%3B%22%20vertex%3D%221%22%20parent%3D%221%22%3E%3CmxGeometry%20x%3D%22641.2221212121212%22%20y%3D%22528.6505673510761%22%20width%3D%2250.90909090909091%22%20height%3D%2230.126582278481013%22%20as%3D%22geometry%22%2F%3E%3C%2FmxCell%3E%3CmxCell%20id%3D%225%22%20value%3D%22Wordpress%22%20style%3D%22text%3Bhtml%3D1%3Balign%3Dcenter%3BverticalAlign%3Dmiddle%3BwhiteSpace%3Dwrap%3Brounded%3D0%3B%22%20vertex%3D%221%22%20parent%3D%221%22%3E%3CmxGeometry%20x%3D%22513.949393939394%22%20y%3D%22528.6505673510761%22%20width%3D%2250.90909090909091%22%20height%3D%2230.126582278481013%22%20as%3D%22geometry%22%2F%3E%3C%2FmxCell%3E%3CmxCell%20id%3D%226%22%20value%3D%22%22%20style%3D%22sketch%3D0%3BoutlineConnect%3D0%3BfontColor%3D%23232F3E%3BgradientColor%3Dnone%3BfillColor%3D%23ED7100%3BstrokeColor%3Dnone%3Bdashed%3D0%3BverticalLabelPosition%3Dbottom%3BverticalAlign%3Dtop%3Balign%3Dcenter%3Bhtml%3D1%3BfontSize%3D12%3BfontStyle%3D0%3Baspect%3Dfixed%3BpointerEvents%3D1%3Bshape%3Dmxgraph.aws4.container_2%3B%22%20vertex%3D%221%22%20parent%3D%221%22%3E%3CmxGeometry%20x%3D%22513.034303030303%22%20y%3D%22498.5239850725951%22%20width%3D%2244.60364455434434%22%20height%3D%2228.806520441347388%22%20as%3D%22geometry%22%2F%3E%3C%2FmxCell%3E%3CmxCell%20id%3D%227%22%20value%3D%22%22%20style%3D%22sketch%3D0%3BoutlineConnect%3D0%3BfontColor%3D%23232F3E%3BgradientColor%3Dnone%3BfillColor%3D%23ED7100%3BstrokeColor%3Dnone%3Bdashed%3D0%3BverticalLabelPosition%3Dbottom%3BverticalAlign%3Dtop%3Balign%3Dcenter%3Bhtml%3D1%3BfontSize%3D12%3BfontStyle%3D0%3Baspect%3Dfixed%3BpointerEvents%3D1%3Bshape%3Dmxgraph.aws4.container_2%3B%22%20vertex%3D%221%22%20parent%3D%221%22%3E%3CmxGeometry%20x%3D%22641.6952167832167%22%20y%3D%22498.5239850725951%22%20width%3D%2244.60364455434434%22%20height%3D%2228.806520441347388%22%20as%3D%22geometry%22%2F%3E%3C%2FmxCell%3E%3C%2Froot%3E%3C%2FmxGraphModel%3E&lt;/span&gt;" style="fillColor=none;strokeColor=#DD3522;verticalAlign=top;fontStyle=0;fontColor=#DD3522;whiteSpace=wrap;html=1;" vertex="1" parent="89">
                    <mxGeometry width="120" height="160" as="geometry"/>
                </mxCell>
                <mxCell id="92" value="&lt;font style=&quot;font-size: 8px;&quot;&gt;MySQL&lt;/font&gt;" style="text;html=1;align=center;verticalAlign=middle;whiteSpace=wrap;rounded=0;fillColor=default;" vertex="1" parent="89">
                    <mxGeometry x="15" y="130" width="50" height="20" as="geometry"/>
                </mxCell>
                <mxCell id="87" value="" style="edgeStyle=none;curved=1;rounded=0;orthogonalLoop=1;jettySize=auto;html=1;endArrow=open;startSize=14;endSize=14;sourcePerimeterSpacing=8;targetPerimeterSpacing=8;" edge="1" parent="1" source="1xvQeY0YGKO31zNW-kw5-3" target="4">
                    <mxGeometry relative="1" as="geometry"/>
                </mxCell>
                <mxCell id="88" value="" style="edgeStyle=none;curved=1;rounded=0;orthogonalLoop=1;jettySize=auto;html=1;endArrow=open;startSize=14;endSize=14;sourcePerimeterSpacing=8;targetPerimeterSpacing=8;" edge="1" parent="1" source="29" target="83">
                    <mxGeometry relative="1" as="geometry"/>
                </mxCell>
                <mxCell id="93" value="" style="edgeStyle=none;curved=1;rounded=0;orthogonalLoop=1;jettySize=auto;html=1;endArrow=open;startSize=14;endSize=14;sourcePerimeterSpacing=8;targetPerimeterSpacing=8;" edge="1" parent="1" source="69" target="91">
                    <mxGeometry relative="1" as="geometry"/>
                </mxCell>
                <mxCell id="113" value="" style="edgeStyle=none;curved=1;rounded=0;orthogonalLoop=1;jettySize=auto;html=1;endArrow=open;startSize=14;endSize=14;sourcePerimeterSpacing=8;targetPerimeterSpacing=8;entryX=0;entryY=0.5;entryDx=0;entryDy=0;" edge="1" parent="1" source="neNdCAJ6mrXqA0sVPd2m-1" target="29">
                    <mxGeometry relative="1" as="geometry">
                        <mxPoint x="348" y="748.4465063897928" as="sourcePoint"/>
                        <mxPoint x="493.94484848484854" y="698.1153164556963" as="targetPoint"/>
                    </mxGeometry>
                </mxCell>
                <mxCell id="115" value="" style="edgeStyle=none;curved=1;rounded=0;orthogonalLoop=1;jettySize=auto;html=1;endArrow=open;startSize=14;endSize=14;sourcePerimeterSpacing=8;targetPerimeterSpacing=8;entryX=0;entryY=0.5;entryDx=0;entryDy=0;" edge="1" parent="1" source="neNdCAJ6mrXqA0sVPd2m-1">
                    <mxGeometry relative="1" as="geometry">
                        <mxPoint x="334.06" y="515.7777593233039" as="sourcePoint"/>
                        <mxPoint x="480.00484848484854" y="329.99531645569607" as="targetPoint"/>
                    </mxGeometry>
                </mxCell>
                <mxCell id="120" value="/mnt/efs/$volume_name" style="edgeLabel;html=1;align=center;verticalAlign=middle;resizable=0;points=[];" vertex="1" connectable="0" parent="115">
                    <mxGeometry x="-0.7231" relative="1" as="geometry">
                        <mxPoint x="19" y="41" as="offset"/>
                    </mxGeometry>
                </mxCell>
            </root>
        </mxGraphModel>
    </diagram>
</mxfile>